<?xml version="1.0" encoding="UTF-8"?>
<svg width="209.06" height="248.06" enable-background="new 0 0 209.064 248.056" viewBox="0 0 209.064 248.056" xmlns="http://www.w3.org/2000/svg">
 <defs>
  <linearGradient id="g" x1="-23.208" x2="181.32" y1="59.585" y2="259.31" gradientUnits="userSpaceOnUse">
   <stop stop-color="#ccc" offset="0"/>
   <stop stop-color="#404040" offset="1"/>
  </linearGradient>
  <linearGradient id="e" x1="16.914" x2="201.89" y1="17.663" y2="176.36" gradientUnits="userSpaceOnUse">
   <stop stop-color="#8a8a8a" offset="0"/>
   <stop stop-color="#f5f5f5" offset=".11"/>
   <stop stop-color="#fff" offset=".22"/>
   <stop stop-color="#bababa" offset=".34"/>
   <stop stop-color="#fff" offset=".48"/>
   <stop stop-color="#bdbdbd" offset=".72"/>
   <stop stop-color="#f0f0f0" offset=".8"/>
   <stop stop-color="#757373" offset="1"/>
  </linearGradient>
  <radialGradient id="f" cx="51.915" cy="61.566" r="147.49" gradientUnits="userSpaceOnUse">
   <stop stop-color="#59b0de" offset="0"/>
   <stop stop-color="#144a80" offset="1"/>
  </radialGradient>
  <radialGradient id="d" cx="72.616" cy="46.558" r="141.06" gradientUnits="userSpaceOnUse">
   <stop stop-color="#ebde63" offset="0"/>
   <stop stop-color="#bf0000" offset="1"/>
  </radialGradient>
  <radialGradient id="c" cx="51.912" cy="61.565" r="147.48" gradientUnits="userSpaceOnUse">
   <stop stop-color="#59b0de" offset="0"/>
   <stop stop-color="#144a80" offset="1"/>
  </radialGradient>
  <radialGradient id="b" cx="87.291" cy="79.753" r="142.51" gradientUnits="userSpaceOnUse">
   <stop stop-color="#94d9ff" offset="0"/>
   <stop stop-color="#144a80" offset="1"/>
  </radialGradient>
  <radialGradient id="a" cx="41.806" cy="129.28" r="121.64" gradientUnits="userSpaceOnUse">
   <stop stop-color="#ebde63" offset="0"/>
   <stop stop-color="#bf0000" offset="1"/>
  </radialGradient>
 </defs>
 <switch transform="matrix(.24,0,0,.24,-15.331,-15.331)" opacity=".81"></switch>
 <path d="m3.922,50.551 8.369-25.445c33.087-3.976 59.758-24.407 100.23-24.407 26.726-.364 57.669,17.776 86.604,19.973l8.329,24.326-8.154,6.2c-10.026,102.97-33.315,174.76-77.858,196.62-31.98,0-78.975-41.12-107.04-188.63l-10.478-8.639z" fill="none" stroke="#f00" stroke-linejoin="bevel" stroke-width=".4313"/>
 <path d="m123.41,244.78c-.877,0-1.738,3.006-2.602,2.979-45.674-1.88-84.731-43.8-112.28-188.57l-8.53-7.992 7.723-22.818 5.54-3.45c3.975-2.48 5.094,7.952 6.873,12.305 9.798,23.976 10.89,50.876 20.405,74.974 7.479,18.962 17.144,37.184 28.558,54.071 8.249,12.183 19.448,22.102 28.572,33.652 9.259,11.752 22.345,21.846 26.522,36.227-.283,3.409-.391,5.821-.432,7.534-.09,3.55.1.99-.35,1.09z" fill="url(#g)" fill-rule="evenodd"/>
 <path d="m119.08,237.32-2.224-.189c-24.164-4.124-65.997-41.415-92.345-179.87l-.701-3.652-7.925-6.522 4.084-12.399 11.577-3.666c19.609-3.558 60.876-20.189 80.31-20.526 20.863-.363 33.949,7.17 64.84,14.313l18.181,5.715 3.692,10.782-5.822,4.42-.431,4.475c-9.528,97.696-32.157,166.55-68.343,185.6l-4.9,1.52z" fill="none" stroke="#f00" stroke-width=".4313"/>
 <path d="m119.08,237.32-2.224-.189c-24.164-4.124-65.997-41.415-92.345-179.87l-.701-3.652-7.925-6.522 4.084-12.399 11.577-3.666c19.609-3.558 60.876-20.189 80.31-20.526 20.863-.363 33.949,7.17 64.84,14.313l18.181,5.715 3.692,10.782-5.822,4.42-.431,4.475c-9.528,97.696-32.157,166.55-68.343,185.6l-4.9,1.52z" fill="url(#f)" fill-rule="evenodd" stroke="#f00" stroke-linejoin="bevel" stroke-width=".4313"/>
 <path d="m122.45,247.82c-31.981,0-78.976-41.12-107.04-188.63l-10.477-8.639 8.369-25.445c33.087-3.976 59.758-24.407 100.23-24.407 26.726-.364 57.669,17.776 86.604,19.973l8.329,24.326-8.154,6.2c-10.03,102.96-33.31,174.76-77.86,196.62zm-6.52-11.18 .405-2.803c2.345-19.326 3.813-51.658 3.908-86.686l-.014-2.225-4.097.405c-18.707,1.671-37.548,2.345-55.486,2.386l-11.334-.108 4.434,11.888c20.5,51.172 42.993,71.119 59.395,76.455l2.78.7zm13.55-3.66 2.143-1.334c19.407-14.164 34.529-43.68 45.445-84.812l3.046-12.372-18.046,4.447c-8.896,1.778-18.032,3.248-27.292,4.42l-1.495.177 .013,3.651c-.08,30.027-1.172,58.06-2.951,77.629l-.86,8.18zm-68.846-98.34c17.924-.08 36.739-.849 55.431-2.399l4.11-.363-.013-2.034c-.418-40.715-2.763-82.764-7.79-110.73l-1.752-8.383-5.971.606c-21.2,3.45-54.933,16.577-72.089,19.69l-11.577,3.666-4.084,12.388 7.925,6.522 .701,3.652c4.933,25.958 10.418,48.37 16.227,67.656l3.113,9.609 15.768.11zm72.586-4.08 1.469-.147c9.259-1.052 18.396-2.318 27.305-3.801l20.715-4.125 1.011-4.757c4.029-20.486 7.224-43.114 9.609-67.534l.431-4.475 5.822-4.42-3.692-10.782-18.182-5.715c-23.167-5.35-36.32-10.93-50.242-13.234l-3.707-.458 1.673,7.992c5.013,27.965 7.358,70.014 7.789,110.73v.74z" fill="url(#e)" fill-rule="evenodd"/>
 <path d="m122.45,247.82c-1.012-.055-2.049.08-3.059-.027-3.113-.31-6.119-.701-8.909-1.631-1.887-.634-3.76-1.28-5.593-2.049-2.736-1.133-4.528-2.13-7.062-3.651-1.146-.688-2.292-1.402-3.369-2.198-1.105-.795-2.251-1.522-3.275-2.398-2.089-1.778-4.232-3.478-6.227-5.351-3.49-3.302-6.105-6.145-9.164-9.852-1.079-1.293-2.17-2.601-3.167-3.963-1.981-2.709-3.989-5.417-5.849-8.193-3.249-4.812-5.297-8.275-8.141-13.329-8.275-14.758-14.677-30.418-20.485-46.429-1.294-3.571-2.467-7.184-3.679-10.795s-2.318-7.278-3.423-10.931c-2.439-8.059-4.205-14.003-6.173-22.197-1.806-7.52-3.638-15.041-5.377-22.587-1.739-7.601-3.019-15.311-4.704-22.925 .607,1.024.728.768-1.887-1.361-2.115-1.712-4.205-3.438-6.293-5.189-2.049-1.712-1.86-.917-2.21-2.129-.335-1.139-.011-.493.771-2.946 .566-1.806 1.024-3.072 1.617-4.878 .944-2.844 1.604-4.879 2.547-7.736 .553-1.685 1.105-3.383 1.671-5.081s1.065-3.41 1.672-5.094c.013-.041.094-.041.108-.081 .054-.135.188-.216.323-.27 .351-.135.661-.148 1.025-.202 .31-.054.62-.067.93-.121 3.747-.688 6.739-1.065 10.445-1.995 5.984-1.537 10.297-2.844 16.173-4.785 8.76-2.897 14.771-5.431 23.544-8.329 2.642-.876 5.27-1.806 7.952-2.574 2.925-.849 5.849-1.739 8.814-2.453 3.005-.714 6.024-1.374 9.056-1.968 4.933-.957 9.164-1.388 14.178-1.806 3.437-.296 6.778-.391 10.243-.27 1.738.068 3.489.122 5.229.297 6.024.58 11.779,1.752 17.345,3.261 1.86.512 3.72,1.011 5.554,1.563 9.973,2.992 17.021,5.499 26.98,8.518 4.69,1.429 8.127,2.493 12.898,3.585 2.21.512 4.42.97 6.645,1.415 2.25.445 4.555.647 6.818,1.024 .62.108 1.268.121 1.888.202 .269.04.538.04.808.067 .188.027.378,0 .553.054 .189.054.364.149.444.351 .338.809.594,1.644.903,2.467 .324.808.58,1.658.862,2.479 1.132,3.234 2.211,6.496 3.329,9.731 .822,2.398 1.699,4.784 2.493,7.196 .27.849.58,1.685.836,2.534 .027.108-.054.175-.081.283-.027.095-.013.216-.094.283-1.16,1.025-2.075,1.658-3.303,2.615-1.186.917-2.062,1.577-3.261,2.48-1.995,1.482-1.914,1.725-1.402.808-.673,5.769-1.158,11.578-1.886,17.345-1.537,12.089-2.736,22.157-4.758,34.165-.957,5.593-1.94,11.2-3.006,16.766-2.479,12.857-5.445,25.472-9.002,37.777-2.413,8.355-5.122,16.576-8.235,24.597-2.763,7.115-5.835,14.124-9.381,20.835-2.479,4.717-4.218,7.965-7.195,12.372-3.707,5.444-6.632,9.3-10.903,14.313-1.199,1.401-2.547,2.683-3.842,4.003-2.776,2.816-5.135,4.757-8.275,7.156-2.856,2.17-5.066,3.396-8.099,5.296-1.21.76-4.96,2.86-3.87,1.92 1.604-1.349 3.774-1.887 5.459-3.128 1.455-1.077 3.045-1.968 4.5-3.046 3.869-2.87 6.753-5.255 10.108-8.719 1.833-1.874 3.612-3.802 5.31-5.809 5.486-6.47 9.92-13.424 13.963-20.62 1.349-2.387 2.561-4.853 3.801-7.306 2.452-4.892 3.922-8.342 5.984-13.41 2.075-5.08 3.504-8.638 5.147-13.854 1.497-4.744 3.1-9.434 4.435-14.218 3.031-10.891 5.121-19.152 7.398-30.23 2.709-13.127 4.462-23.747 6.442-37.008 1.064-7.089 1.819-14.219 2.776-21.334 .539-4.07.849-8.167 1.335-12.237 .229-1.914.35-3.841.579-5.755 .013-.189.094-.323.242-.431 1.065-.849 2.17-1.671 3.262-2.48 1.645-1.226 3.262-2.493 4.892-3.732-.04.148-.256.498-.134.417 .094-.054-.041.391-.081.283-.688-1.765-1.079-3.059-1.698-4.852-.606-1.792-1.051-3.073-1.645-4.879-1.604-4.879-3.342-9.717-5-14.582 .107.08.364.39.323.256-.027-.095.337.161.229.175-.378.04-.715-.041-1.092-.094-3.315-.445-6.092-.661-9.354-1.308-5.08-1.011-8.896-1.94-13.881-3.329-6.429-1.792-10.971-3.396-17.346-5.377-2.885-.903-5.74-1.9-8.625-2.776-5.58-1.698-9.636-3.019-15.311-4.34-4.824-1.105-8.76-1.725-13.68-2.372-2.398-.31-4.852-.121-7.264-.35-2.021.107-4.069-.014-6.091.175-5.58.52-10.37.803-15.855,1.84-7.129,1.362-12.399,2.776-19.354,4.865-3.221.971-6.402,2.116-9.596,3.167-3.935,1.307-7.776,2.87-11.711,4.205-7.224,2.439-12.318,4.393-19.664,6.469-2.668.754-5.391,1.361-8.086,2.008-2.21.539-4.488.782-6.711,1.24-.714.148-1.456.189-2.17.31l-.62.081c-.108,0-.202.041-.31.027-.095,0 .242-.27.216-.175-.041.134.215-.176.323-.256-1.685,5.081-3.396,10.148-5.027,15.256-.553,1.698-1.119,3.396-1.685,5.081-1.859,5.593-1.2,6.698-1.874,4.393 3.046,2.521 5.364,4.38 8.383,6.928 .687.58 1.429,1.119 2.089,1.725 .31.27.27.661.351,1.052 .242,1.146.418,2.291.66,3.437 2.062,9.838 3.491,17.493 5.795,27.278 2.601,11.051 4.703,19.245 7.75,30.176 2.317,8.289 4.164,14.205 6.927,22.359 1.24,3.665 2.493,7.344 3.855,10.971 1.375,3.625 2.722,7.25 4.177,10.821 1.981,4.825 4.097,9.596 6.213,14.354 1.051,2.385 2.237,4.704 3.383,7.035 1.146,2.345 2.345,4.649 3.598,6.927 1.51,2.723 3.005,5.459 4.623,8.113 3.275,5.432 5.701,9.192 9.501,14.259 1.578,2.104 3.194,4.205 4.906,6.2 3.747,4.34 6.955,7.588 11.227,11.415 1.361,1.227 2.817,2.345 4.272,3.464 3.18,2.438 5.593,3.896 9.138,5.768 1.577.85 3.234,1.537 4.878,2.252 2.373,1.023 4.178,1.576 6.711,2.115 1.604.337 4.017,2.25 4.879.836 .66-1.08 2.55.12 3.8.28-2.075-3.774-5.606-6.955-6.523-11.174-.039-.175.148-.391.054-.565-.08-.161.041-.377.055-.565l.161-1.699v.014c1.308-13.747 2.104-27.789 2.629-41.981 .539-14.771.755-29.663.781-44.69v-.432c-.014-.593-.014-1.186-.014-1.778 .229.202.458.418.688.619-18.504,1.86-37.561,2.724-56.941,2.816-4.69.028-9.353-.054-14.029-.093 .202-.311.417-.607.62-.903 .889,2.386 1.765,4.757 2.655,7.143 .296.782.593,1.577.89,2.372 1.375,3.72 1.146,3.033.876,2.359 4.757,11.859 10.067,23.422 16.482,34.434 4.38,7.521 9.272,14.784 15.068,21.591 3.072,3.625 6.563,7.196 10.188,10.297 5.215,4.42 10.809,8.018 17.089,10.242h-.014c.931.269 1.847.553 2.763.821l-2.25-.444c-.216-.04-.404-.014-.58-.121-.013-.014-.283-.081-.31-.095-.378-.121-.741-.229-1.104-.363-5.81-2.008-11.052-5.351-15.876-9.327-1.2-.983-2.386-2.021-3.545-3.086-6.429-5.957-11.752-12.668-16.456-19.568-2.48-3.612-4.771-7.305-6.941-11.065-3.221-5.579-6.159-11.293-8.895-17.115-2.79-5.931-5.418-11.941-7.722-18.101-.89-2.372-1.833-4.744-2.668-7.13-.337-.969-.58-1.549-.768-2.56-.014-.067.094-.108.135-.175 .094-.136.094-.324.242-.352 .822-.161 1.55-.148 2.399-.161 .755-.014 1.509.013 2.264.013 2.265.027 4.529.041 6.792.055h1.334c1.361,0 2.709-.014 4.057-.027 4.124-.04 8.234-.107 12.332-.229 12.749-.337 25.324-1.038 37.709-2.09-.539.189 1.052-.108 1.631-.161 .566-.054 1.064-.122 1.645-.148 .27-.013.539-.095.809-.081 .067,0 .081.107.148.122 .054.013.081.08.135.121 .094.094.216.134.27.255 .026.055.135.068.147.121 .067.297 0,.595 0,.891 .014,5.216-.054,10.432-.147,15.606-.242,14.528-.715,28.922-1.563,43.141-.364,5.971-.795,11.914-1.361,17.79-.229,2.398-.472,4.771-.755,7.143-.202,1.645-.363,3.316-.673,4.92-.149.74-.284,1.481-.433,2.223m13.52-3.67 2.075-1.441h-.013l.89-.688 .876-.714 .889-.741 .862-.755 .876-.769 .863-.795 .849-.822 .85-.835 .85-.863 .835-.876 .822-.902 .835-.917 .81-.942 .822-.957 .809-.998 .794-.997 .795-1.024 .796-1.052 .781-1.063 .769-1.092 .782-1.105 .754-1.118 .769-1.16 .755-1.159 .741-1.199 .741-1.198 .728-1.241 .741-1.239 .714-1.267 .716-1.295 .714-1.307 .7-1.335 .701-1.347 .688-1.361 .687-1.389 .688-1.415 .674-1.415 .661-1.455 .66-1.455 .66-1.483 .646-1.509 .647-1.523 .634-1.536 .633-1.564 .634-1.576 .62-1.59 .606-1.618 .62-1.63 .593-1.658 .593-1.671 .593-1.686 .58-1.711 .579-1.711 .579-1.752 .566-1.753 .553-1.778 .552-1.792 .553-1.82 .539-1.833 .54-1.847 .525-1.859 .525-1.887 .525-1.899 .513-1.915-.014.014 3.046-12.372 .809.809-18.046,4.435-.027.013-3.356.66-3.382.62-3.396.594-3.409.552-3.424.54-3.45.511-3.464.473-3.463.458h-.014l-1.482.176 .565-.646v3.665l-.014,2.803-.013,2.804-.027,2.776-.04,2.763-.041,2.749-.04,2.736-.054,2.723-.068,2.695-.054,2.668-.08,2.655-.067,2.628-.081,2.602-.094,2.573-.082,2.562-.107,2.521-.094,2.493-.121,2.453-.108,2.438-.121,2.399-.121,2.358-.136,2.331-.135,2.278-.148,2.264-.134,2.21-.162,2.171-.148,2.129-.161,2.103-.176,2.035-.175,2.008-.176,1.954-.174,1.9-.189,1.859-1.12,8.22c.203-2.734.418-5.472.621-8.207 1.886-25.337 2.492-51.349 2.561-77.615 0,.485-.015-.971-.015-1.455v-.729c0-.242-.013-.484 0-.728 0-.243-.04-.498-.013-.74 .013-.055.094-.068.12-.122 .027-.121.136-.161.229-.256 .31-.364.646-.311 1.119-.364 .202-.027.391-.054.593-.067-.471.148.89-.122 1.374-.188l1.39-.188c1.846-.242 3.679-.499 5.512-.782 6.401-.943 12.722-2.063 18.976-3.288l-.041.014 3.612-.89 3.612-.89 3.611-.89c1.2-.296 2.399-.606 3.612-.89 1.2-.269 2.385-.646 3.598-.89 .082-.013.095.176.162.162 .081,0 .108.108.162.161 .121.121.337.162.323.324 0,.08.175.095.162.162-.136.835-.418,1.645-.606,2.479-.188.822-.404,1.645-.606,2.466-.216.836-.418,1.658-.62,2.48s-.405,1.644-.606,2.479c-.311,1.24-.607,2.426-.93,3.64-1.254,4.622-2.575,9.205-4.004,13.732-3.598,11.375-7.789,22.452-13.005,33.02-3.962,8.019-8.518,15.768-14.232,22.911-4.029,5.04-8.867,9.96-14.083,13.652-.81.62-1.7,1.03-2.57,1.52m-68.846-98.34 3.37-.148 3.396-.08 3.396-.095 3.423-.107 3.436-.121 3.451-.136 3.463-.135 3.477-.161 3.49-.176 3.478-.188 3.504-.216 3.49-.229 3.504-.243 3.504-.256 3.504-.269 3.518-.297h-.014l4.11-.391-.444.484-.013-2.034-.123-7.642-.175-7.655-.094-3.814-.122-3.814-.121-3.8-.135-3.8-.148-3.774-.161-3.76-.175-3.747-.189-3.72-.188-3.692-.216-3.652-.229-3.639-.229-3.599-.243-3.558-.271-3.517-.269-3.478-.297-3.423-.148-1.698-.147-1.685-.162-1.671-.161-1.658-.163-1.644-.16-1.631-.177-1.618-.175-1.59-.175-1.59-.188-1.577-.175-1.551-.189-1.536-.202-1.523-.189-1.509-.201-1.483-.202-1.469-.202-1.456-.216-1.442-.216-1.415-.215-1.388-.229-1.389-.216-1.361-.229-1.334-.242-1.321 .013.027-1.765-8.383 .728.526-5.97.607h.04l-.997.162-1.011.188-1.038.189-1.052.216-1.064.215-1.078.229-1.092.243-1.104.256-1.119.27-1.132.269-2.304.58-2.346.62-2.385.647-2.413.674-2.439.701-2.466.714-2.479.741-4.973,1.51-4.973,1.522-2.479.768-2.453.769-2.421.748-2.399.741-2.385.728-2.332.701-1.159.35-1.132.337-1.132.337-1.119.324-1.105.323-1.092.31-1.065.296-1.064.297-1.038.283-1.024.283-1.011.256-.998.256-.971.243-.957.229-.93.229-.903.202-.903.202-.863.176-.849.175-.822.148 .081-.027-11.577,3.652 .405-.391-4.096,12.372-.189-.647 7.911,6.55 .202.337 .687,3.652 .458,2.426 .458,2.399 .472,2.385 .458,2.359 .472,2.345 .485,2.317 .472,2.305 .485,2.278 .472,2.25 .485,2.251 .486,2.21 .499,2.197 .485,2.183 .499,2.17 .498,2.129 .499,2.129 .499,2.103 .512,2.076 .499,2.063 .512,2.048 .512,2.021 .513,2.008 .525,1.981 .513,1.968 .525,1.954 .512,1.928 .526,1.914 .526,1.887 .526,1.874 .539,1.86 .525,1.833 .539,1.819 3.032,9.623-.243-.189 15.768.39-15.769.148-.256-.175-3.167-9.582v-.014l-.566-1.806-.539-1.833-.553-1.859-.553-1.874-.539-1.887-.552-1.9-.54-1.941-.539-1.94-.539-1.968-.526-1.981-.539-2.008-.525-2.021-.525-2.035-.513-2.076-.525-2.076-.526-2.103-.512-2.116-.512-2.143-.512-2.156-.499-2.184-.512-2.197-.499-2.224-.497-2.251-.485-2.264-.499-2.278-.485-2.304-.485-2.319-.485-2.344-.485-2.359-.472-2.385-.472-2.399-.472-2.427-.701-3.652 .202.337-7.938-6.509-.189-.647 4.057-12.399 .405-.391 11.563-3.692 .081-.014 .808-.148 .836-.175 .863-.175 .876-.203 .903-.202 .917-.215 .943-.23 .971-.256 .984-.242 .998-.27 1.024-.27 1.038-.296 1.051-.296 1.065-.296 1.079-.31 1.104-.324 1.105-.323 1.133-.337 1.132-.337 1.159-.351 2.332-.714 2.373-.728 2.398-.742 2.439-.754 2.453-.769 2.48-.768 4.973-1.537 4.987-1.523 2.48-.728 2.466-.728 2.453-.701 2.412-.674 2.399-.647 2.358-.62 2.318-.58 1.132-.283 1.133-.27 1.119-.256 1.105-.243 1.091-.229 1.078-.229 1.052-.203 1.051-.202 1.024-.189 1.011-.161 .04-.014 5.971-.606 .728.539 1.752,8.383v.014l.229,1.321 .229,1.348 .229,1.375 .216,1.375 .216,1.415 .215,1.416 .217,1.442 .201,1.456 .203,1.483 .202,1.496 .188,1.51 .189,1.522 .188,1.55 .188,1.55 .176,1.577 .175,1.591 .176,1.604 .161,1.631 .176,1.63 .147,1.645 .162,1.658 .162,1.685 .147,1.685 .148,1.698 .27,3.437 .27,3.477 .257,3.531 .242,3.558 .229,3.612 .202,3.625 .202,3.679 .189,3.693 .175,3.719 .148,3.746 .148,3.76 .135,3.787 .121,3.801 .108,3.813 .094,3.814 .081,3.828 .135,7.655 .081,7.641v2.049l-.445.472-4.111.364-3.503.27-3.519.242-3.517.229-3.504.215-3.504.203-3.503.176-3.491.147-3.49.135-3.477.121-3.463.094-3.464.082-3.436.066-3.423.041-3.41.014-3.396-.014-3.419-.08m72.586-4.08 1.456-.242 3.463-.472 3.438-.471 3.436-.486 3.424-.484 3.396-.513 3.396-.539 3.356-.54 3.355-.579-.014.013 20.688-4.232-.363.364 .983-4.744 .728-3.854 .715-3.921 .688-3.963 .673-4.016 .661-4.056 .634-4.111 .619-4.15 .606-4.205 .58-4.245 .565-4.286 .54-4.34 .525-4.38 .498-4.434 .499-4.461 .458-4.515 .458-4.555 .432-4.475 .256-.458 5.809-4.434-.216.741-3.706-10.782 .432.418-18.181-5.714 .054.013-1.092-.242-1.065-.256-1.051-.243-1.037-.256-2.035-.499-1.981-.512-1.927-.499-1.887-.499-1.833-.499-1.793-.498-1.752-.486-1.698-.498-1.671-.472-1.631-.485-1.591-.459-1.563-.472-1.522-.444-1.495-.458-1.482-.431-1.442-.431-1.429-.417-1.389-.405-1.388-.391-1.361-.377-1.348-.377-1.334-.351-1.321-.35-1.308-.324-1.307-.31-1.293-.297-1.295-.283-1.294-.256-1.294-.242-1.294-.229h.027l-3.706-.444 .715-.769 1.657,7.979v.021l.229,1.321 .229,1.348 .216,1.361 .229,1.388 .216,1.401 .216,1.416 .202,1.442 .203,1.469 .201,1.47 .202,1.496 .188,1.51 .188,1.522 .188,1.55 .176,1.563 .176,1.577 .175,1.591 .176,1.604 .161,1.617 .162,1.63 .161,1.658 .149,1.658 .16,1.671 .136,1.685 .147,1.698 .283,3.45 .257,3.477 .256,3.518 .229,3.572 .215,3.598 .202,3.639 .188,3.666 .176,3.693 .162,3.732 .148,3.733 .135,3.774 .121,3.773 .107,3.801 .094,3.813 .136,7.642 .08,7.655-.041,7.656-.14.72-.055-.727-.255-7.642-.229-7.655-.256-7.642-.136-3.8-.147-3.801-.162-3.773-.175-3.76-.176-3.733-.202-3.72-.201-3.692-.216-3.667-.229-3.625-.243-3.599-.256-3.558-.27-3.517-.283-3.478-.297-3.436-.161-1.685-.148-1.685-.162-1.671-.161-1.658-.162-1.644-.174-1.631-.177-1.618-.175-1.604-.175-1.591-.189-1.563-.188-1.564-.188-1.536-.189-1.523-.202-1.496-.202-1.497-.202-1.469-.202-1.456-.216-1.429-.216-1.415-.215-1.402-.229-1.375-.229-1.361-.229-1.334-.229-1.321v.014l-1.685-7.979 .714-.768 3.692.445 .041.013 1.307.216 1.309.243 1.307.269 1.308.283 1.32.297 1.309.31 1.333.323 1.335.337 1.333.364 1.362.364 1.374.391 1.389.391 1.401.405 1.429.417 1.441.417 1.482.445 1.496.445 1.524.445 1.563.472 1.591.458 1.63.472 1.658.485 1.698.485 1.752.485 1.779.499 1.833.485 1.872.498 1.928.499 1.968.512 2.036.499 1.023.256 1.051.243 1.064.256 1.079.243 .054.013 18.181,5.715 .417.431 3.694,10.782-.23.741-5.821,4.421 .256-.458-.445,4.474-.458,4.555-.484,4.528-.5,4.475-.525,4.42-.538,4.394-.554,4.339-.579,4.299-.606,4.246-.62,4.204-.633,4.165-.661,4.11-.687,4.07-.688,4.016-.729,3.962-.74,3.922-.755,3.854v.014l-1.024,4.744-.378.364-20.728,4.029h-.014l-3.355.539-3.383.499-3.396.485-3.41.459-3.437.431-3.45.404-3.464.378-3.463.322-1.42.09z" fill="#919ca3"/>
 <path d="m132.21,130.56v-.727c-.432-40.715-2.777-82.764-7.79-110.73l-1.631-7.804 3.652.27h.028l13.167,3.06 8.477,2.412 .041.013 8.315,2.454 2.345.646 2.21.647 3.006.808 1.873.513 .903.229 1.658.445c2.601.66 5.336,1.334 8.234,2.008l18.181,5.715 3.692,10.782-5.822,4.42-.431,4.475-.122.997-4.069,34.246-5.418,32.292-.472,2.21-.539,2.546-20.715,4.125c-8.908,1.482-18.046,2.749-27.305,3.801l-1.45.14z" fill="url(#d)" fill-rule="evenodd"/>
 <path d="m59.624,134.64-15.769-.107-3.113-9.609-5.121-18.316-1.429-5.579-3.652-15.2-1.401-6.132-4.623-22.426-.701-3.652-7.925-6.522 4.084-12.399 11.577-3.666c2.143-.391 4.542-.93 7.157-1.59l.701-.202 .418-.095 2.843-.795 4.407-1.227 1.334-.404 1.227-.351 15.149-4.649 1.293-.405 9.394-2.789 17.358-4.879 1.55-.404 9.016-1.86 .242-.041 5.971-.606 1.752,8.383c5.026,27.965 7.372,70.014 7.79,110.73l.013,2.034-4.11.363c-18.688,1.56-37.502,2.33-55.426,2.41z" fill="url(#c)" fill-rule="evenodd"/>
 <path d="m128.47,232.98 .861-8.193c1.779-19.569 2.871-47.602 2.952-77.629l-.014-3.651 1.495-.177c9.26-1.172 18.396-2.642 27.292-4.42l18.046-4.447-3.046,12.372-4.07,14.097-1.441,4.34-2.979,8.746-1.847,4.786-2.952,7.29-2.075,4.61-3.086,6.388-2.25,4.245-3.302,5.673-2.358,3.748-3.653,5.094-2.358,3.113-4.259,4.731-2.103,2.236-6.711,5.714-.944.594-1.19.75z" fill="url(#b)" fill-rule="evenodd"/>
 <path d="m114.92,236.64-2.79-.688-.055-.026-5.781-2.453-1.9-1.064-4.42-2.735-2.277-1.645-4.636-3.854-2.143-1.914-6.941-7.345h-.013v-.014l-7.048-9.219-2.224-3.328-5.013-7.979-2.534-4.421-5-9.542-2.291-4.637-7.035-16.092-.081-.188-4.434-11.874 11.334.095c17.938-.041 36.779-.715 55.485-2.386l4.098-.405 .014,2.225c-.095,35.027-1.563,67.359-3.908,86.686l-.41,2.79z" fill="url(#a)" fill-rule="evenodd"/>
 <path d="m3.922,50.551 8.369-25.445c1.294,7.277-5.391,17.197-5.418,22.83-.027,6.618 4.852,5.27 11.227,9.191 16.699,99.879 52.534,184.13 103.34,190.69-31.98,0-78.975-41.12-107.04-188.63l-10.478-8.639z" fill="#fff" fill-rule="evenodd"/>
 <path d="m43.855,134.53-.836-2.39-.822-2.38-.822-2.39-.809-2.39v-.01l-1.347-4.55-1.321-4.57-1.335-4.57-1.306-4.57-.014-.01-.364-1.39-.364-1.4-.363-1.39-.364-1.39v-.01l-.944-3.79-.929-3.8-.944-3.801-.93-3.787v-.014l-.364-1.536-.35-1.523-.351-1.536-.364-1.537v-.013l-1.173-5.593-1.171-5.607-1.173-5.593-1.159-5.607v-.013l-.176-.903-.175-.916-.175-.917-.175-.916 .202.35-1.981-1.63-1.981-1.631-1.981-1.631-1.981-1.631-.189-.647 1.01-3.099 1.024-3.1 1.025-3.1 1.024-3.1 .391-.377 2.884-.916 2.898-.916 2.898-.917 2.884-.903 .08-.027 .203-.027 .202-.041 .202-.04 .202-.04 .202-.041 .216-.04 .202-.041 .216-.04 .215-.041 .216-.054 .202-.04 .216-.04 .229-.054 .216-.054 .215-.041 .23-.054 .215-.054 .229-.04 .23-.054 .229-.054 .229-.054 .229-.054 .229-.054 .229-.053 .242-.054 .229-.054 .243-.068 .229-.054 .243-.054 .242-.067 .243-.054 .242-.067h-.013l.175-.041 .175-.054 .189-.04 .175-.054 .027-.013 .108-.014 .095-.027 .107-.027 .108-.027-.027.014 .701-.203 .714-.202 .715-.188 .7-.202h.014l1.091-.297 1.106-.309 1.105-.297 1.105-.297h-.013l.323-.094 .337-.108 .337-.107 .337-.095h.013l.297-.094 .31-.081 .31-.081 .31-.094h-.014l3.787-1.146 3.787-1.146 3.801-1.159 3.787-1.145l.323-.094 .324-.108 .337-.095 .323-.094l2.345-.687 2.358-.688 2.346-.687 2.359-.687l4.353-1.186 4.353-1.186 4.353-1.186 4.353-1.173l.391-.095 .39-.093 .392-.095 .376-.094h.015l2.263-.445 2.251-.431 2.268-.431 2.26-.432l.05-.013 .07-.014 .05-.013 .07-.014h.02l1.49-.121 1.5-.121 1.5-.122 1.49-.121-1.49.202-1.49.176-1.49.188-1.49.176h.02l-.07.013-.06.013-.06.014-.06.013l-2.25.499-2.247.498-2.237.499-2.25.485h.012l-.39.108-.377.094-.391.108-.391.108h.013l-4.326,1.254-4.339,1.267-4.327,1.253-4.339,1.239h.013l-2.345.715-2.346.714-2.344.715-2.346.701h.015l-.338.108-.324.094-.322.108-.324.093l-3.774,1.187-3.787,1.186-3.773,1.172-3.787,1.173-.014.013-.31.081-.31.095-.296.08-.31.095 .013-.014-.337.108-.337.108-.337.094-.323.108h-.014l-1.104.31-1.106.31-1.091.31-1.106.296l-.701.202-.714.203-.7.202-.715.202-.027.013-.107.027-.108.014-.108.027-.095.027 .027-.014-.188.054-.175.054-.176.041-.175.054h-.013l-.243.067-.243.067-.242.054-.243.068-.243.054-.229.054-.242.067-.229.054-.242.054-.229.054-.244.067-.229.054-.229.04-.229.054-.215.054-.229.054-.23.054-.215.041-.229.053-.216.054-.216.041-.229.054-.216.04-.215.041-.202.054-.216.04-.216.04-.215.041-.202.04-.202.041-.203.04-.202.027 .068-.014-2.898.931-2.884.916-2.898.916-2.884.917 .391-.391-1.024,3.1-1.025,3.1-1.01,3.099-1.024,3.099-.189-.66 1.981,1.631 1.981,1.631 1.981,1.644 1.968,1.631 .215.35 .176.917 .161.903 .176.916 .175.916v-.013l1.146,5.607 1.145,5.606 1.132,5.62 1.146,5.607-.014-.014 .35,1.537 .338,1.536 .35,1.537 .337,1.522l.903,3.801 .889,3.814 .903,3.8 .89,3.806l.35,1.4 .337,1.4 .35,1.39 .351,1.4v-.01l1.239,4.59 1.241,4.6 1.226,4.59 1.227,4.6v-.02l.74,2.42 .728,2.41 .728,2.41z" fill="#40617d"/>
 <path d="m110.62,10.726c1.118,4.299 2.21,8.585 3.005,13.019 2.426,13.423 3.721,27.413 4.678,41.618 1.307,19.636 1.792,39.663 1.98,59.866 .027,1.82.041,3.612.054,5.418v.916c0,.054.027.256 0,.297-.162.255-.444.484-.646.7-.148.175-.229.35-.418.472-.067.041-.148,0-.215.014-.054.027-.136.014-.203.027-.269.026-.552.04-.821.066-.958.081-1.929.176-2.885.243-4.205.351-8.41.619-12.655.862-13.086.782-26.51,1.132-40,.97-6.294-.08-12.466-.363-18.639-.674 5.216-.215 10.486-.336 15.769-.431 5.269-.095 10.58-.323 15.809-.539 13.329-.512 26.523-1.335 39.529-2.479-.135.04.256-.027.404-.04 .27-.028.539-.055.822-.082 .956-.08 1.913-.175 2.871-.269-.068.08-.162.147-.217.242-.054.08-.134.148-.202.229-.161.162-.269.31-.431.472-.081.068-.121.176-.216.229-.026.014.027-.094 0-.107-.067-.014 0-.135 0-.202-.014-.566-.014-1.146-.014-1.725 0,.255 0-.486-.013-.755-.015-1.011-.027-2.035-.041-3.06-.04-2.547-.081-5.094-.121-7.641-.095-5.728-.216-11.47-.337-17.157-.337-14.407-.809-28.747-1.672-42.885-.403-6.698-.835-13.329-1.481-19.865-.459-4.582-.917-9.178-1.497-13.679-.188-1.389-.377-2.79-.565-4.165l-.162-1.064c-.014-.095-.027-.176-.027-.27-.013-.027-.013-.041-.013-.067-.014-.095-.014-.081-.014-.054-.48-2.798-.97-5.615-1.41-8.445z" fill="#fff"/>
 <path d="m132.21,129.84c-.324-6.213-.539-12.481-.795-18.734-.256-6.334-.554-12.655-.85-18.949-.93-19.259-2.358-38.438-4.649-56.955-.458-3.72-.997-7.426-1.576-11.105-.257-1.618-.54-3.221-.81-4.839 0,.014.014.027.014.027-.432-2.075-.876-4.164-1.294-6.24-.135-.633-.392-1.226-.135-1.779 .08-.175.229-.27.363-.418 .136-.148.189-.324.364-.417 .055-.027.135.027.189.014s.12.013.175.013l.552.04c.918.068 1.834.149 2.75.216-.216,0 .189.041.216.041-.026-.014-.04-.014-.054-.027 2.398.579 4.811,1.146 7.224,1.712l4.608,1.091c.485.122.863.189 1.349.324 2.815.822 5.646,1.645 8.464,2.466 .593.391 1.725.526 2.546.768 .298.095.526.162.823.256l4.973,1.497c1.523.444 3.033.889 4.556,1.348l-.015-.014c1.618.472 3.236.917 4.853,1.375h-.014c.863.229 1.712.472 2.562.701 2.722.741 5.458,1.415 8.207,2.116 .31.081.337.108.93.31l1.807.606c1.213.391 2.412.795 3.611,1.2 3.922,1.321 7.83,2.668 11.726,4.029-3.989-1.091-7.966-2.224-11.914-3.382-1.536-.445-3.06-.89-4.583-1.348-.296-.081-.605-.175-.902-.27-.311-.081-.62-.175-.916-.269-.014,0 .04.013.026.013-.04-.013-.067-.013-.107-.027l-.378-.081c-2.008-.431-4.016-.889-5.997-1.361-.741-.175-1.482-.351-2.21-.539-.256-.068-.499-.135-.755-.189-.108-.027-.216-.067-.323-.095-.041,0-.068-.013-.095-.013-.161-.04-.095-.027-.067-.027-.688-.148-1.361-.337-2.049-.512-.121-.027-.242-.068-.363-.095l-.283-.081c-.121-.027-.135-.027-.094-.027-1.119-.283-2.252-.567-3.356-.876-.484-.121-.971-.27-1.442-.404-.121-.027-.229-.054-.337-.094-.147-.027-.147-.027-.107-.027-2.466-.647-4.905-1.361-7.358-2.063l-1.658-.472-.418-.121-.417-.121-.418-.122c-1.563-.444-.526-.121-.404-.121-.661,0-1.105-.296-1.753-.485-1.132-.31-2.263-.62-3.396-.944l-1.698-.472c-.418-.121-.849-.242-1.267-.35l-.391-.108c-3.733-.849-7.467-1.698-11.199-2.561-.216-.041-.445-.094-.661-.148-.215-.041-.444-.095-.66-.148s-.432-.094-.646-.148c-.014,0-.068-.013-.082-.027l.257.041c-.081.04-.175,0-.257-.014l-.553-.041-2.924-.203c.311-.35.606-.7.916-1.064 .903,4.231 1.82,8.382 2.494,12.695 2.17,13.976 3.598,28.329 4.542,42.979 .741,11.523 1.253,23.168 1.495,34.947 .19,9.28.25,18.8.03,28.1z" fill="#a82b1c"/>
 <path d="m194.88,30.524 1.09,2.627 1.05,2.656 1.03,2.668 1.02,2.655-.19.594-1.41,1.145-1.43,1.145-1.43,1.146-1.43,1.146 .29-.513-.09,1.132-.09,1.119-.08,1.119-.08,1.118-.01.014-.02.256-.02.256-.03.242-.03.257l-.89,8.571-.9,8.571-.96,8.572-.97,8.571 .02-.148l-.02.203-1.33,8.072-1.35,8.072-1.38,8.07-1.38,8.08-.02.04-.12.55-.12.55-.12.56-.12.55l-.14.63-.13.63-.15.64-.14.63-.87.88-5.19.98-5.19.98-5.2.98-5.19.95h-.03l-.85.12-.83.12-.84.14-.85.11-.84.12-.84.12-.85.11-.85.12-.85.11-.86.1-.85.11-.85.1-.86.11-.85.09-.86.11-.85.09-.86.09-.87.1-.86.08-.86.1-.86.08-.87.08-.86.08-.86.06-.88.09-.86.06-.88.07-.86.05-.87.07-.88.04-.86.06-.88.05 .86-.17 .85-.17 .87-.15 .86-.14 .86-.15 .85-.14 .86-.15 .87-.14 .84-.14 .87-.14 .84-.14 .87-.15 .85-.13 .85-.15 .84-.14 .87-.15 .85-.13 .83-.15 .85-.15 .85-.13 .85-.15 .85-.15 .83-.15 .85-.13 .84-.15 .83-.15 .85-.14 .84-.15 .83-.15 .84-.16 .84-.15 .83-.15h-.04l5.16-1.1 5.18-1.1 5.16-1.09 5.17-1.06-.88.86 .13-.63 .13-.64 .12-.63 .14-.63l.11-.56 .12-.55 .11-.55 .12-.55-.02.04 1.33-8.08 1.33-8.07 1.36-8.072 1.38-8.074-.02.189l.02-.134 1.05-8.559 1.09-8.544 1.12-8.558 1.16-8.544l.02-.243 .04-.257 .03-.242 .04-.256v.027l.12-1.119 .14-1.118 .13-1.119 .14-1.118 .28-.499 1.48-1.078 1.48-1.065 1.49-1.064 1.48-1.065-.17.592-.84-2.735-.81-2.736-.79-2.736z" fill="#fff"/>
 <path d="m119.22,144.93 .014,2.225c-.095,35.027-1.563,67.359-3.908,86.686l-.404,2.803" fill="none" stroke="#fff" stroke-linejoin="bevel" stroke-width="2.6954"/>
 <path d="m114.92,236.64-1.82-.404c-.054-.013-.094-.013-.148-.026l-.135-.041c-.054,0-.094-.013-.147-.026-.216-.04-.391-.04-.594-.136-1.146-.497-2.358-.942-3.53-1.414-.876-.351-1.806-.647-2.628-1.104-.458-.243-.903-.486-1.348-.729-.931-.499-1.833-1.078-2.75-1.631-.513-.323-1.038-.634-1.55-.943-.175-.108-.31-.162-.458-.283-.728-.579-1.537-1.092-2.305-1.617-.566-.404-1.105-.903-1.645-1.348-1.725-1.401-3.422-2.804-5.107-4.285-.404-.364-.782-.809-1.172-1.214-1.173-1.213-2.332-2.439-3.504-3.652-.472-.484-.93-.97-1.401-1.455-.108-.121-.229-.243-.35-.363-.108-.122-.23-.243-.337-.364-1.928-2.009-.418-.405-.351-.363 0,0-.013-.015-.013-.028-.148-.147-.256-.31-.391-.484-.256-.338-.445-.579-.701-.917-1.671-2.143-3.315-4.286-4.973-6.429-1.968-2.56-3.639-5.229-5.337-7.924-1.011-1.591-2.089-3.168-3.046-4.798-.593-1.024-1.186-2.063-1.779-3.101-.229-.391-.566-.942-.769-1.334-1.685-3.181-3.423-6.348-5.013-9.556-.769-1.535-1.537-3.085-2.305-4.637-.135-.256-.216-.457-.364-.821-.27-.593-.445-1.011-.701-1.604-.472-1.078-.944-2.143-1.416-3.222-1.523-3.49-2.992-7.008-4.568-10.472-.122-.242-.203-.512-.31-.795-.594-1.59-1.187-3.167-1.766-4.758-.593-1.59-1.187-3.167-1.766-4.757-.162-.444-.31-.741-.445-1.187-.054-.201-.189-.391-.216-.592-.013-.068.095-.096.108-.162 0-.067.068-.108.108-.162 .081-.108.094-.242.216-.31 .067-.027.054-.148.121-.162 .364-.081.741.014 1.132.014l10.189.121h-.013c6.712.027 13.369-.081 19.987-.229 13.369-.31 26.577-.983 39.609-2.009l-1.024.136-1.024.122-1.011.121-1.024.121-.876.095-.876.094-.876.094-.89.096-.876.08-.876.08-.876.081-.875.081-.876.081-.876.067-.876.08-.876.082-.876.067-.876.067-.876.066-.876.068-.89.067-.875.054-.876.067-.876.067-.876.054-.876.055-.876.054-.876.054-.876.054-.862.054-.876.04-.876.055-.876.04-.876.054-.862.041-.876.04-.876.041-.862.04-.876.04-.862.041-.876.026-.862.041-.863.041-.876.026-.863.027-.863.026-.862.041-.863.026-.876.014-.85.026-.862.026-.863.028-.863.013-.849.027-.863.014-.862.026-.85.015-.849.013-.862.014-.849.013-.849.015-.849.013-.85.014h-.849l-.849.014h-.836l-.849.014h-.849l-2.83-.014-2.831-.014-2.83-.026-2.83-.015 .552-.795 1.105,2.979 1.118,2.965 1.105,2.965 1.119,2.979-.014-.039 .014.054 .027.054 .027.04 .013.054v-.014l1.766,4.03 1.751,4.017 1.766,4.029 1.752,4.017-.014-.027 .566,1.159 .58,1.159 .58,1.158 .566,1.159v-.014l1.24,2.386 1.24,2.399 1.24,2.386 1.253,2.385-.014-.014 .634,1.104 .62,1.105 .633,1.105 .633,1.105-.013-.027 1.253,2.008 1.253,1.995 1.24,2.008 1.254,1.995-.014-.014 .553.836 .553.836 .552.835 .553.822-.027-.027 1.752,2.317 1.8,2.31 1.752,2.317 1.752,2.318-.041-.054h.014v.014l1.725,1.846 1.725,1.847 1.726,1.847 1.725,1.859-.027-.026 .54.484 .525.486 .525.484 .539.472h-.013l1.159.97 1.146.971 1.159.984 1.146.971-.014-.014 .567.417 .566.419 .552.418 .567.417-.014-.014 1.091.701 1.105.7 1.092.701 1.092.687 .472.271 .472.283 .472.27 .471.269h-.027l1.442.634 1.441.633 1.43.647 1.441.634h-.014l.014.014h.027l.015.013-.015-.013 .701.202 .688.188 .701.188 .71.18z" fill="#a3544a"/>
 <path d="m128.47,232.98c.094-2.763.256-5.498.431-8.234v.014c.147-3.571.363-7.143.525-10.728 .378-8.114.701-16.253.931-24.42 .242-9.421.444-18.923.605-28.425 .081-4.676.095-9.353.162-14.029v.014-2.372-.916c0-.121-.055-.256 0-.364 .054-.095.148-.148.201-.229 .136-.176.257-.297.405-.458s.242-.311.404-.459c.054-.041.297-.027.378-.041l1.117-.12c-.121.025.203-.027.324-.041s.229-.027.351-.04c.688-.081 1.388-.176 2.075-.257 2.075-.256 4.138-.539 6.213-.822 6.159-.822 12.265-1.819 18.329-2.87-.674.135 1.105-.243 1.779-.391 1.199-.256 2.412-.526 3.625-.782 4.232-.902 8.478-1.752 12.776-2.547-1.482.458-2.951.943-4.447,1.388-4.434,1.335-8.936,2.548-13.423,3.774-.444.121-.917.202-1.375.309-1.105.244-2.224.486-3.343.701-3.315.674-6.644,1.321-10.014,1.888-4.487.769-9.016,1.481-13.584,2.062l-.364.041c-.054.013-.175.066-.148.013 .055-.08.136-.147.202-.216 .243-.322.539-.619.809-.915 .107,15.809-.135,31.495-.89,46.927-.539,10.836-1.253,21.576-2.479,32.063-.42,3.57-.98,7.06-1.57,10.51z" fill="#40617d"/>
 <path d="m179.1,134.46-3.05,12.37-4.07,14.1-1.44,4.34-2.98,8.75-1.84,4.78-2.96,7.29-2.07,4.61-3.09,6.39-2.25,4.24-3.3,5.68-2.36,3.75-3.65,5.09-2.36,3.11-4.26,4.73-2.1,2.24-6.71,5.71-.95.6-1.19.74" fill="none" stroke="#fff" stroke-linejoin="bevel" stroke-width="2.6954"/>
</svg>
